# xmcd CD Database Entry
#
# Track frame offsets:
# 150
# 6127
# 25905
# 50632
# 74935
# 90640
# 105780
# 125195
# 144992
# 167417
# 180640
# 199742
# 204355
# 226165
# 244615
# 264302
# 281417
#
# Disc length: 4005 seconds
#
# Revision: 6
# Processed by: cddbd v1.4b41PL3 Copyright (c) Steve Scherf et al.
# Submitted via: tcd 2.0b
#
DISCID=e60fa311
DTITLE=De La Sol - art official intelligence: mosaic thump
DYEAR=1900
DGENRE=Other
TTITLE0=soitkicker.com - say r.
TTITLE1=u can do (life)
TTITLE2=my writes
TTITLE3=ooh
TTITLE4=Thru ya city
TTITLE5=i. c. y'all
TTITLE6=view
TTITLE7=set the mood
TTITLE8=all good?
TTITLE9=declaration
TTITLE10=squat!
TTITLE11=words from the chief rocker
TTITLE12=with me
TTITLE13=copa (cabanga)
TTITLE14=foolin'
TTITLE15=the art of getting jumped
TTITLE16=u dont wanna b.d.s.
EXTD=ID3G:  12
EXTT0=
EXTT1=
EXTT2=
EXTT3=
EXTT4=
EXTT5=
EXTT6=
EXTT7=
EXTT8=
EXTT9=
EXTT10=
EXTT11=
EXTT12=
EXTT13=
EXTT14=
EXTT15=
EXTT16=
PLAYORDER=
